<?xml version="1.0" encoding="utf-8"?>
<svg version="1.1" xmlns:xlink="http://www.w3.org/1999/xlink" width="40px" height="50px" xmlns="http://www.w3.org/2000/svg">
  <defs>
    <filter x="393px" y="272px" width="40px" height="50px" filterUnits="userSpaceOnUse" id="filter4">
      <feOffset dx="1" dy="1" in="SourceAlpha" result="shadowOffsetInner" />
      <feGaussianBlur stdDeviation="2.5" in="shadowOffsetInner" result="shadowGaussian" />
      <feComposite in2="shadowGaussian" operator="atop" in="SourceAlpha" result="shadowComposite" />
      <feColorMatrix type="matrix" values="0 0 0 0 0  0 0 0 0 0  0 0 0 0 0  0 0 0 0.698039215686274 0  " in="shadowComposite" />
    </filter>
    <g id="widget5">
      <path d="M 412 315.036928468354  C 406.2 305.40734059591  397.5 299.629587872444  397.5 290  C 397.5 284.985714285714  400.4 276.5  412 276.5  C 423.6 276.5  426.5 284.985714285714  426.5 290  C 426.5 299.629587872444  417.8 305.40734059591  412 315.036928468354  Z " fill-rule="nonzero" fill="#009dd9" stroke="none" />
      <path d="M 412 316  C 406 306  397 300  397 290  C 397 284.8  400 276  412 276  C 424 276  427 284.8  427 290  C 427 300  418 306  412 316  Z M 412 314.073856936707  C 417.6 304.81468119182  426 299.259175744887  426 290  C 426 285.171428571429  423.2 277  412 277  C 400.8 277  398 285.171428571429  398 290  C 398 299.259175744887  406.4 304.81468119182  412 314.073856936707  Z " fill-rule="nonzero" fill="#ffffff" stroke="none" />
    </g>
  </defs>
  <g transform="matrix(1 0 0 1 -393 -272 )">
    <use xlink:href="#widget5" filter="url(#filter4)" />
    <use xlink:href="#widget5" />
  </g>
</svg>